<svg id="Layer_1" data-name="Layer 1" xmlns="http://www.w3.org/2000/svg" viewBox="0 0 176.17 111.72"><title>Gore_Logo</title><path d="M175.88,44.33a38.62,38.62,0,0,0-21.81-30.5,37.64,37.64,0,0,0-23-3l-58,12.07a19.93,19.93,0,0,0,.35-10.22C71.61,5.38,64.31,0,56.06,0a19.71,19.71,0,0,0-4.81.57c-8.15,2-16.65,9.38-23,19A7.75,7.75,0,0,0,28,17.8a7.39,7.39,0,0,0-7.28-5.66,9.45,9.45,0,0,0-2.3.29C10.38,14.41-2.76,27.95.51,41.24c1.22,5,4.62,8.76,9.65,11.08A38.71,38.71,0,0,0,8.91,86.47a41.28,41.28,0,0,0,37.74,25.24A43.46,43.46,0,0,0,58.77,110l86.9-21.75A37.77,37.77,0,0,0,160,80.91l1.79-1.46a39,39,0,0,0,14.06-35.13" style="fill:#3d8686"/><path d="M138.47,25.76a1.16,1.16,0,0,1,1.48,1c0.66,2.7-1.53,9.58-6.23,10.74-0.82-3.34,1.21-10.87,4.75-11.74M89.41,51.85a12.56,12.56,0,0,1-1.89,5.84,3.1,3.1,0,0,1-2,1.4c-2.14.53-3.92-1.16-4.62-4-2.37-9.63.89-17.92,4.1-18.71,1.64-.4,3.1.6,3.89,3.81a32.11,32.11,0,0,1,.52,11.67M44.71,94.22c-2.13.52-3.65-.54-4.22-2.84C39.43,87,46.14,81.33,54.27,77l1.26-.76c-2.42,9.25-6.74,17-10.82,18M55,12.32a3.17,3.17,0,0,1,4.13,2.5c1.9,7.74-8.87,21.84-21.66,26.34,1.77-13.33,10-27,17.53-28.84m97.31,23.86a1.39,1.39,0,0,0-1.67-1,1.84,1.84,0,0,0-1.07,1.22s-2.34,6.85-8.45,8.35c-3.09.76-6.2-.79-7.13-4.59a18.21,18.21,0,0,0,2.54-.21c8.1-2,8.9-9,8.14-12.1a7.34,7.34,0,0,0-8.73-5c-5.59,1.38-12.16,9.88-9.74,19.72,0,0.12.07,0.23,0.1,0.34-0.69,1.76-2.52,5.7-5.2,6.36a2.06,2.06,0,0,1-2.68-1.73c-1.28-5.21,2.13-11.84,1.42-14.74a2.94,2.94,0,0,0-3.4-2.44c-1.54.38-2.24,1.44-5.13,2.15-1.54.38-2.81,0.21-3-.69s0.33-2.26-.08-3.93c-0.32-1.29-3-2.81-4.81-2.36-1.54.38-3.21,3-2.56,5.67a6.2,6.2,0,0,0,3.29,4.24s0.52,4.88-2.78,12.82c-0.67,1.61-2.68,4.74-4.62,5.21a5.7,5.7,0,0,1-1.18.14,20.93,20.93,0,0,0,1.51-12.93c-1.61-6.57-7.16-9.44-13.09-8-7.42,1.82-14.94,10.64-12,22.62a9.11,9.11,0,0,0,.65,1.77,23,23,0,0,1-7,7.77,117.63,117.63,0,0,0-1.27-17.27s4.35-5.76,3.31-10a3.11,3.11,0,0,0-4-2.52C58,36.48,57.39,48.63,57.39,48.63s-4.58,9.6-10.45,11c-4.42,1.09-7.68-1.18-9-6.62a25.9,25.9,0,0,1-.76-6.76c20.09-5.93,32.32-22.2,29.9-32.06-1.19-4.85-7.36-9-14.24-7.32-11,2.7-24,19.06-27.26,35.47-4.73-.91-7.78-3.77-8.64-7.25-1.71-7,1.78-11.08,3.64-13.43,0.77-.91,1.32-1.59,1.13-2.35-0.13-.51-0.57-0.85-1.68-0.58C15.34,19.92,4.52,30.16,6.86,39.68c1.55,6.29,9,9,17.91,8.67A29.19,29.19,0,0,0,25.54,57c2.22,9,9.8,13.1,18.56,10.94,7.4-1.82,13.06-10.7,13.06-10.7a46.72,46.72,0,0,1-.26,12.51L53.63,71.1c-12.74,5-24.7,11-22.5,20,1.34,5.44,8.78,10,17.62,7.84C58.1,96.61,64,85.78,65.34,70.3a35.19,35.19,0,0,0,9.86-9.95,11.94,11.94,0,0,0,10.44,2.34,13.5,13.5,0,0,0,7.43-4.85,20.27,20.27,0,0,0,2.83-.47c3.17-.78,5.86-2.07,9.23-10.44,1.92-4.76,1.54-7.11,2-10.89,0,0,3.92-.69,4.24.59,0.49,2-2.47,7.43-1.08,13.09,0.87,3.54,4.86,5.62,9.75,4.42,4.08-1,6.66-5.08,8-7.88,2.48,3,6.85,4.23,11.67,3a17.73,17.73,0,0,0,12.39-11.43,4.36,4.36,0,0,0,.2-1.69" style="fill:#fff"/><path d="M82.78,85.8a3.11,3.11,0,0,1-1.54,2.43,14.15,14.15,0,0,1-3.45.91,0.56,0.56,0,0,1-.73-0.58s0.23-13.45.21-15.39A1,1,0,0,1,78,72.25c1.65-.45,3.67-1,4.36.32,0.82,1.6,1,9.23.42,13.23m-3.3-16.38c-2.35.43-5,1.14-6.2,1.49a1,1,0,0,0-.71.92v0.94a0.54,0.54,0,0,0,.7.59l0.09,0a0.55,0.55,0,0,1,.7.59c0.07,2.77,0,13.21-.06,15.44a1,1,0,0,1-.77.93,1,1,0,0,0-.77.93c0,0.28,0,.59,0,0.9a0.67,0.67,0,0,0,.82.62c1.8-.42,5-1.16,6.23-1.47,5.13-1.33,6.28-3.92,6.64-9.44,0.2-3.25,0-6.69,0-7a5.47,5.47,0,0,0-6.75-5.41" style="fill:#fff"/><path d="M99.5,74.91c-0.7.16-1.93,0.49-2.69,0.7a0.5,0.5,0,0,1-.67-0.5l0.07-6.35A0.88,0.88,0,0,1,96.85,68c1-.27,2.84-0.67,3.24-0.7,2.29-.07,2.9.42,3,2.81a4.67,4.67,0,0,1-3.57,4.82m7.34,7.58a4.15,4.15,0,0,1-1.28-.36c-0.95-.4.18-5.75-2.68-6.08-0.09,0-.09-0.17,0-0.22,2.79-1.54,3.56-3.47,3.46-6.81s-2.38-5.37-4.86-4.88c-1.68.27-7.15,1.68-9,2.15a0.84,0.84,0,0,0-.61.77l0,1.36a0.5,0.5,0,0,0,.64.51l0.15,0a0.5,0.5,0,0,1,.64.51c0,2.27-.08,9.81-0.14,13.71,0,0.41,0,1.52-.07,2.18a0.78,0.78,0,0,1-.52.69,0.77,0.77,0,0,0-.61.68L91.86,87.9a0.44,0.44,0,0,0,.55.47c0.92-.19.92-0.19,4.55-1.1a0.73,0.73,0,0,0,.55-0.73l-0.05-1.18A0.41,0.41,0,0,0,96.94,85c-0.49.08-.73-0.11-0.73-0.42l0-5.56a0.65,0.65,0,0,1,.46-0.58c0.58-.14,1.62-0.41,2.2-0.49,1.38-.32,2.83,1,2.88,3,0,2.23.07,4.19,0.71,4.73s2.41,0.12,4.06-.45a1,1,0,0,0,.61-0.77,9.28,9.28,0,0,0,.19-1.21,0.58,0.58,0,0,0-.52-0.69" style="fill:#fff"/><path d="M127.44,58.1l-4.83,1.17-0.09,0a1,1,0,0,0-.65,1l0,0.93a0.59,0.59,0,0,0,.7.56,0.57,0.57,0,0,1,.76.57c0,1.91,0,6.12,0,9.26,0,4.43-.28,7.28-3.74,8.1s-3.56-1.58-3.54-6.29c0-2.2.1-7.46,0.17-9.36a1.12,1.12,0,0,1,.86-1,1,1,0,0,0,.68-0.91v-1a0.58,0.58,0,0,0-.76-0.57l-4.86,1.14a1.09,1.09,0,0,0-.68,1l0,1a0.56,0.56,0,0,0,.7.56,0.57,0.57,0,0,1,.76.57c-0.06.45,0,7-.05,9.23,0,8.35,1.84,9.32,6.73,8.17,5.41-1.27,6.92-3.79,7-11.36l0.05-9.23a1,1,0,0,1,.68-0.91,1.08,1.08,0,0,0,.83-1v-1a0.57,0.57,0,0,0-.73-0.58" style="fill:#fff"/><path d="M146.3,65.18l-3.67.86a1.41,1.41,0,0,0-1,1.31v0.75a0.75,0.75,0,0,0,.94.75l1.25-.26a0.35,0.35,0,0,1,.46.36,19,19,0,0,1,0,2.29A4.72,4.72,0,0,1,140.91,74c-4.4.94-4.13-3.45-4.14-7.71S138.67,55,144,57.75a0.85,0.85,0,0,1,.39.66c0,0.16,0,.34,0,0.53a0.77,0.77,0,0,0,1,.77c0.27-.06.58-0.1,0.85-0.17a1.41,1.41,0,0,0,1-1.31v-2a1.25,1.25,0,0,0-.21-0.55c-1.61-1.85-5.27-1.42-8.12-.41-4.62,1.71-5.44,7.24-5.62,11.42-0.18,4.71.6,12.15,6.93,10.63,3.58-.84,5.5-2.21,6.84-5.59a2.79,2.79,0,0,0,.22-0.8c0.07-1,.05-3.37,0-5a0.78,0.78,0,0,0-1-.79" style="fill:#fff"/></svg>